<svg xmlns="http://www.w3.org/2000/svg" viewBox="0 0 400 400" width="400" height="400">
  <defs>
    <linearGradient id="crownGradient" x1="0%" y1="0%" x2="100%" y2="100%">
      <stop offset="0%" style="stop-color:#FFD700;stop-opacity:1" />
      <stop offset="50%" style="stop-color:#FFA500;stop-opacity:1" />
      <stop offset="100%" style="stop-color:#FF8C00;stop-opacity:1" />
    </linearGradient>
    <linearGradient id="shieldGradient" x1="0%" y1="0%" x2="100%" y2="100%">
      <stop offset="0%" style="stop-color:#4A90E2;stop-opacity:1" />
      <stop offset="50%" style="stop-color:#357ABD;stop-opacity:1" />
      <stop offset="100%" style="stop-color:#2E5984;stop-opacity:1" />
    </linearGradient>
    <linearGradient id="letterGradient" x1="0%" y1="0%" x2="100%" y2="100%">
      <stop offset="0%" style="stop-color:#E8F4FD;stop-opacity:1" />
      <stop offset="50%" style="stop-color:#B8D4EA;stop-opacity:1" />
      <stop offset="100%" style="stop-color:#87CEEB;stop-opacity:1" />
    </linearGradient>
    <filter id="glow">
      <feGaussianBlur stdDeviation="4" result="coloredBlur"/>
      <feMerge> 
        <feMergeNode in="coloredBlur"/>
        <feMergeNode in="SourceGraphic"/>
      </feMerge>
    </filter>
  </defs>
  
  <!-- Shield Base -->
  <path d="M200 50 L120 80 L120 200 Q120 280 200 350 Q280 280 280 200 L280 80 Z" 
        fill="url(#shieldGradient)" 
        stroke="#2E5984" 
        stroke-width="3"
        filter="url(#glow)"/>
  
  <!-- Shield Inner Shadow -->
  <path d="M200 60 L130 85 L130 200 Q130 270 200 330 Q270 270 270 200 L270 85 Z" 
        fill="none" 
        stroke="#1A4A6B" 
        stroke-width="2" 
        opacity="0.6"/>
  
  <!-- Letter "C" -->
  <path d="M160 120 Q140 120 140 150 L140 250 Q140 280 160 280 L220 280 Q240 280 240 260 L240 240 L220 240 L220 260 L160 260 L160 140 L220 140 L220 160 L240 160 L240 140 Q240 120 220 120 Z" 
        fill="url(#letterGradient)" 
        stroke="#87CEEB" 
        stroke-width="2"
        filter="url(#glow)"/>
  
  <!-- Crown -->
  <g transform="translate(200, 40)">
    <!-- Crown Base -->
    <rect x="-40" y="10" width="80" height="15" 
          fill="url(#crownGradient)" 
          stroke="#B8860B" 
          stroke-width="1"/>
    
    <!-- Crown Points -->
    <polygon points="-35,10 -25,0 -15,10" 
             fill="url(#crownGradient)" 
             stroke="#B8860B" 
             stroke-width="1"/>
    <polygon points="-15,10 -5,-5 5,10" 
             fill="url(#crownGradient)" 
             stroke="#B8860B" 
             stroke-width="1"/>
    <polygon points="5,10 15,0 25,10" 
             fill="url(#crownGradient)" 
             stroke="#B8860B" 
             stroke-width="1"/>
    <polygon points="25,10 35,-2 40,10" 
             fill="url(#crownGradient)" 
             stroke="#B8860B" 
             stroke-width="1"/>
    <polygon points="-40,10 -35,-2 -25,10" 
             fill="url(#crownGradient)" 
             stroke="#B8860B" 
             stroke-width="1"/>
    
    <!-- Crown Gems -->
    <circle cx="-20" cy="5" r="2" fill="#FF6B6B" opacity="0.8"/>
    <circle cx="0" cy="0" r="3" fill="#4ECDC4" opacity="0.8"/>
    <circle cx="20" cy="5" r="2" fill="#45B7D1" opacity="0.8"/>
  </g>
  
  <!-- Decorative Elements -->
  <circle cx="120" cy="120" r="3" fill="#FFD700" opacity="0.6"/>
  <circle cx="280" cy="140" r="2" fill="#4ECDC4" opacity="0.6"/>
  <circle cx="140" cy="300" r="2" fill="#FF6B6B" opacity="0.6"/>
  <circle cx="260" cy="320" r="3" fill="#45B7D1" opacity="0.6"/>
</svg>